<svg xmlns="http://www.w3.org/2000/svg" viewBox="0 0 24 24" fill="none">
  <rect width="24" height="24" rx="4" fill="#2CA01C" />
  <path d="M6.5 8.5C6.5 7.12 7.62 6 9 6H10C11.38 6 12.5 7.12 12.5 8.5V9.5C12.5 10.88 11.38 12 10 12H9C7.62 12 6.5 10.88 6.5 9.5V8.5Z" fill="white"/>
  <path d="M6 14L8 14L8 18L6 18L6 14Z" fill="white"/>
  <path d="M12 9L12 18L14 18L14 15.5C14 14.12 15.12 13 16.5 13L17.5 13C18.88 13 20 14.12 20 15.5L20 18L18 18L18 15.5C18 15.22 17.78 15 17.5 15L16.5 15C16.22 15 16 15.22 16 15.5L16 18L18 18" fill="white"/>
</svg> 